<?xml version="1.0" encoding="UTF-8"?>
<!-- Generator: visioncortex VTracer 0.6.3 -->
<svg version="1.1" xmlns="http://www.w3.org/2000/svg" width="1280" height="1280">
<path d="M0 0 C422.4 0 844.8 0 1280 0 C1280 422.4 1280 844.8 1280 1280 C857.6 1280 435.2 1280 0 1280 C0 857.6 0 435.2 0 0 Z " fill="#000100" transform="translate(0,0)"/>
<path d="M0 0 C3.49 2.79 5.74 6.39 6.63 10.77 C6.84 13.04 6.91 15.29 6.95 17.58 C6.97 18.48 7 19.38 7.03 20.31 C7.12 23.47 7.17 26.62 7.23 29.78 C7.25 30.94 7.27 32.11 7.3 33.31 C7.48 42.67 7.6 52.04 7.7 61.4 C7.73 64.03 7.76 66.66 7.79 69.29 C8.07 93.51 8.27 117.74 8.44 141.97 C8.45 143.26 8.46 144.54 8.47 145.87 C8.55 157.57 8.63 169.27 8.71 180.98 C8.96 219.86 9.29 258.74 9.7 297.62 C9.73 300.9 9.77 304.17 9.8 307.45 C10.01 326.97 10.21 346.48 10.43 366 C10.89 407.01 11.32 448.02 11.4 489.03 C11.41 492.55 11.42 496.08 11.43 499.6 C11.45 503.67 11.45 507.73 11.45 511.8 C11.45 513.27 11.46 514.75 11.47 516.23 C11.48 518.24 11.47 520.25 11.47 522.27 C11.47 523.95 11.47 523.95 11.47 525.66 C11.21 529.01 10.52 531.68 9.23 534.78 C5.09 537.5 0.48 536.98 -4.27 536.71 C-5.02 536.7 -5.77 536.69 -6.54 536.67 C-10.61 536.46 -12.34 536.14 -15.59 533.47 C-16.31 532.58 -17.03 531.69 -17.77 530.78 C-18.37 530.09 -18.97 529.39 -19.58 528.68 C-20.12 528.03 -20.66 527.38 -21.21 526.71 C-27.67 519.36 -36.45 515.25 -46.04 513.32 C-61.14 512.49 -78.85 527.39 -89.85 536.26 C-101.57 545.66 -113.21 552.76 -128.77 551.78 C-131.65 551.34 -131.65 551.34 -133.77 549.78 C-136.94 543.3 -137.26 536.67 -137.36 529.58 C-137.4 527.94 -137.4 527.94 -137.44 526.27 C-137.52 522.63 -137.59 519 -137.65 515.36 C-137.71 512.77 -137.77 510.18 -137.82 507.58 C-137.96 501.3 -138.09 495.02 -138.21 488.74 C-138.35 481.34 -138.51 473.94 -138.67 466.55 C-139.47 428.95 -140.13 391.35 -140.77 353.75 C-141.52 309.3 -142.58 264.85 -143.71 220.4 C-143.73 219.56 -143.75 218.71 -143.78 217.84 C-145.06 167.48 -146.42 117.13 -147.91 66.78 C-147.97 64.75 -148.03 62.72 -148.09 60.69 C-148.2 57.01 -148.31 53.34 -148.42 49.66 C-148.47 48.05 -148.51 46.43 -148.56 44.82 C-148.58 44.11 -148.61 43.41 -148.63 42.68 C-148.76 38.04 -148.79 33.42 -148.77 28.78 C-148.78 27.73 -148.78 26.69 -148.79 25.62 C-148.38 21.96 -147.83 19.87 -145.77 16.78 C-138.05 11.83 -127.86 9.3 -118.77 8.78 C-115.16 9.66 -112.48 11.23 -109.77 13.78 C-108.89 15.99 -108.89 15.99 -108.34 18.46 C-106.14 28 -97.54 33.71 -89.65 38.71 C-80.38 44.25 -69.51 47.13 -58.77 44.78 C-50.49 41.01 -44.84 35.21 -39.77 27.78 C-39.26 27.04 -38.74 26.3 -38.21 25.54 C-36.24 21.75 -35.27 17.85 -34.21 13.71 C-33.8 12.12 -33.38 10.52 -32.96 8.93 C-32.69 7.88 -32.69 7.88 -32.41 6.8 C-31.73 4.62 -30.94 2.74 -29.77 0.78 C-19.62 -4.43 -10.15 -4.91 0 0 Z " fill="#F3F5F5" transform="translate(984.7734375,378.22265625)"/>
<path d="M0 0 C2.39 1.71 3.66 3.05 5.19 5.56 C5.43 8.22 5.43 8.22 5.28 11.27 C4.85 29.51 8.47 41.26 18.19 56.56 C21.62 62.15 24.88 67.73 27.75 73.62 C35.26 88.89 42.96 104.11 51.56 118.79 C52.92 121.15 54.11 123.25 54.76 125.9 C54.9 126.45 55.04 127 55.19 127.56 C57.68 128.86 57.68 128.86 60.19 129.56 C60.45 128.72 60.71 127.87 60.98 127 C62.25 123.39 63.8 120.02 65.5 116.6 C65.82 115.94 66.14 115.28 66.47 114.61 C67.16 113.2 67.85 111.79 68.55 110.38 C70.38 106.66 72.19 102.93 74 99.2 C74.37 98.46 74.73 97.72 75.1 96.95 C82.34 82.03 89.08 66.9 95.62 51.66 C98.34 45.37 101.27 39.24 104.42 33.16 C107.34 27.47 109.59 21.59 111.77 15.57 C113.28 12.36 114.13 11.27 117.19 9.56 C119.58 9.79 119.58 9.79 122.22 10.63 C123.19 10.93 124.16 11.23 125.16 11.54 C126.16 11.88 127.16 12.22 128.19 12.56 C129.15 12.87 130.11 13.19 131.09 13.51 C133.97 14.47 136.83 15.48 139.69 16.5 C140.66 16.83 141.64 17.17 142.64 17.51 C144.04 18.02 144.04 18.02 145.47 18.53 C146.3 18.82 147.14 19.12 148 19.42 C150.69 20.82 151.64 21.96 153.19 24.56 C153.56 27.5 153.56 27.5 153.57 30.99 C153.57 31.63 153.58 32.28 153.58 32.94 C153.59 35.11 153.58 37.28 153.57 39.45 C153.58 41.01 153.58 42.58 153.59 44.14 C153.6 47.54 153.6 50.94 153.6 54.34 C153.59 59.84 153.61 65.34 153.62 70.84 C153.65 78.77 153.66 86.71 153.67 94.64 C153.69 114.65 153.77 134.66 153.86 154.66 C153.87 156.82 153.88 158.97 153.89 161.12 C154.08 203.46 154.68 245.78 155.57 288.11 C155.63 290.5 155.68 292.9 155.73 295.29 C156.02 309.27 156.32 323.24 156.62 337.22 C157.06 357.13 157.45 377.05 157.79 396.96 C157.83 398.94 157.83 398.94 157.86 400.95 C158.05 412.06 158.24 423.18 158.43 434.29 C158.54 440.72 158.65 447.15 158.76 453.58 C158.78 455.08 158.78 455.08 158.81 456.6 C159.08 471.84 159.43 487.08 159.87 502.32 C160.85 536.71 160.85 536.71 159.19 542.56 C154.86 542.64 150.54 542.69 146.22 542.73 C144.75 542.74 143.28 542.76 141.81 542.79 C139.69 542.83 137.57 542.84 135.46 542.86 C134.18 542.87 132.91 542.89 131.6 542.9 C127.71 542.52 126 542.3 123.19 539.56 C120.94 532.56 120.87 525.23 120.81 517.95 C120.79 516.82 120.78 515.7 120.76 514.54 C120.71 510.81 120.67 507.08 120.62 503.36 C120.59 500.68 120.55 498.01 120.52 495.34 C120.44 489.66 120.37 483.98 120.3 478.3 C120.19 469.72 120.07 461.14 119.94 452.56 C119.7 436.23 119.47 419.91 119.25 403.58 C119.2 399.6 119.14 395.62 119.09 391.63 C118.5 349.13 118.01 306.63 117.66 264.13 C117.25 214.6 116.27 165.08 115.19 115.56 C114.08 117.92 112.98 120.29 111.87 122.65 C111.57 123.31 111.26 123.97 110.94 124.65 C107.99 130.96 105.13 137.32 102.31 143.69 C101.8 144.84 101.29 145.99 100.76 147.18 C97.52 154.51 94.3 161.84 91.12 169.19 C90.77 170.01 90.41 170.83 90.04 171.68 C86.58 179.44 86.58 179.44 84.19 187.56 C85.42 190.28 85.42 190.28 87.19 192.56 C87.88 195.56 87.88 195.56 87.19 198.56 C82.39 202.56 76.83 204.63 71.06 206.88 C70.38 207.14 69.7 207.41 69 207.68 C64.94 209.18 61.49 210.3 57.19 209.56 C51.93 205.72 49.61 199.98 46.88 194.25 C45.9 192.25 44.92 190.25 43.95 188.25 C43.47 187.27 43 186.3 42.51 185.29 C41.09 182.37 39.64 179.47 38.17 176.57 C29.15 158.75 20.71 140.63 12.19 122.56 C11.53 122.56 10.87 122.56 10.19 122.56 C10.69 168.6 11.44 214.63 12.39 260.66 C12.5 265.99 12.61 271.33 12.71 276.67 C12.75 278.22 12.75 278.22 12.78 279.81 C13.05 293.2 13.3 306.59 13.5 319.99 C13.52 320.72 13.53 321.46 13.54 322.22 C13.65 329.43 13.75 336.65 13.85 343.87 C14.01 356.05 14.28 368.23 14.65 380.41 C15.32 402.51 15.71 424.61 16.12 446.71 C16.23 452.71 16.34 458.71 16.46 464.72 C16.55 469.43 16.63 474.14 16.72 478.85 C16.76 481.07 16.81 483.28 16.85 485.49 C16.96 491.53 17.07 497.57 17.15 503.6 C17.18 505.64 17.2 507.67 17.24 509.7 C17.28 512.77 17.31 515.83 17.34 518.9 C17.35 519.83 17.37 520.76 17.38 521.72 C17.39 522.57 17.39 523.43 17.4 524.31 C17.4 525.06 17.41 525.81 17.42 526.59 C17.19 528.56 17.19 528.56 15.19 531.56 C12.43 532.48 10.55 532.73 7.7 532.84 C6.83 532.88 5.96 532.92 5.06 532.96 C4.15 532.99 3.25 533.03 2.31 533.06 C-2.85 533.26 -7.75 533.51 -12.81 534.56 C-15.04 534.65 -17.27 534.69 -19.5 534.69 C-20.64 534.69 -21.78 534.69 -22.95 534.7 C-25.81 534.56 -25.81 534.56 -27.81 533.56 C-29.1 529.16 -29.13 524.56 -29.33 520.01 C-29.38 519.1 -29.42 518.2 -29.46 517.26 C-30.06 502.88 -30.21 488.48 -30.42 474.08 C-30.49 469.55 -30.56 465.02 -30.63 460.49 C-30.79 450.54 -30.94 440.58 -31.09 430.63 C-31.19 424.35 -31.28 418.07 -31.38 411.8 C-32.44 343.1 -33.42 274.4 -34.35 205.71 C-34.46 197.17 -34.58 188.64 -34.7 180.11 C-35.12 149.93 -35.51 119.75 -35.81 89.56 C-35.82 88.66 -35.83 87.75 -35.84 86.82 C-35.94 76.26 -36.03 65.71 -36.06 55.15 C-36.07 52.38 -36.09 49.61 -36.11 46.84 C-36.14 43.15 -36.15 39.46 -36.15 35.77 C-36.16 34.72 -36.17 33.67 -36.19 32.58 C-36.16 26.79 -35.6 22.68 -32.81 17.56 C-31.26 16.07 -31.26 16.07 -29.5 15.12 C-28.8 14.73 -28.11 14.34 -27.39 13.94 C-26.54 13.49 -25.69 13.03 -24.81 12.56 C-23.09 11.58 -21.37 10.6 -19.65 9.62 C-18.43 8.91 -17.2 8.22 -15.97 7.53 C-12.61 5.64 -9.41 3.63 -6.25 1.44 C-2.81 -0.44 -2.81 -0.44 0 0 Z " fill="#F2F4F4" transform="translate(307.8125,369.4375)"/>
<path d="M0 0 C3.12 0.59 4.77 1.47 7.12 3.56 C19.89 13.44 37.1 18.21 53 19 C54.56 19.08 54.56 19.08 56.16 19.16 C63.35 19.35 69.27 18.51 76 16 C76.99 15.67 77.98 15.34 79 15 C80.38 17.75 80.17 20.01 80.23 23.09 C80.27 25.05 80.27 25.05 80.3 27.04 C80.33 28.5 80.35 29.96 80.37 31.41 C80.4 32.94 80.43 34.47 80.46 36 C80.53 40.18 80.6 44.37 80.67 48.56 C80.75 53.02 80.83 57.48 80.91 61.93 C81.04 69.5 81.17 77.07 81.3 84.64 C81.43 92.25 81.56 99.85 81.7 107.45 C81.71 108.36 81.73 109.28 81.75 110.22 C81.76 111.14 81.78 112.05 81.8 112.99 C83.01 181.27 83.95 249.55 84.53 317.84 C84.56 321.48 84.59 325.12 84.63 328.76 C84.98 369.5 85.14 410.25 85 451 C84.24 450.96 83.48 450.93 82.69 450.89 C79.18 450.72 75.68 450.57 72.17 450.42 C70.37 450.33 70.37 450.33 68.54 450.25 C50.71 449.51 36.71 453.41 20.82 461.38 C19.37 462.1 19.37 462.1 17.9 462.83 C16.63 463.49 16.63 463.49 15.32 464.17 C12.7 465.11 11.56 465.02 9 464 C6.92 461.92 7.75 457.4 7.7 454.52 C7.68 453.62 7.66 452.71 7.64 451.78 C7.58 448.73 7.52 445.67 7.46 442.62 C7.41 440.44 7.37 438.25 7.32 436.07 C7.19 430.07 7.07 424.08 6.95 418.09 C6.83 411.7 6.69 405.32 6.56 398.93 C6.34 388.08 6.12 377.23 5.9 366.39 C5.68 355.5 5.46 344.62 5.23 333.74 C3.93 270.79 2.71 207.83 1.68 144.88 C0.96 101.18 0.04 57.48 -0.94 13.78 C-0.96 12.53 -0.98 11.29 -1 10 C-1.01 9.28 -1.03 8.56 -1.04 7.81 C-1.12 2.23 -1.12 2.23 0 0 Z " fill="#000100" transform="translate(875,428)"/>
<path d="M0 0 C3.8 2.89 6 5.62 6.85 10.33 C7.11 13.45 7.26 16.55 7.37 19.68 C7.43 20.84 7.48 22.01 7.54 23.21 C7.72 26.99 7.87 30.78 8.02 34.57 C8.14 37.21 8.26 39.84 8.38 42.47 C8.62 47.65 8.86 52.82 9.08 57.99 C9.43 65.81 9.89 73.63 10.39 81.45 C11.52 99.85 12.35 118.28 13.21 136.7 C13.31 138.76 13.4 140.82 13.5 142.88 C13.57 144.27 13.63 145.66 13.69 147.04 C14.16 156.96 14.64 166.87 15.15 176.78 C15.36 180.97 15.57 185.15 15.78 189.33 C15.94 192.64 16.11 195.95 16.28 199.26 C17.09 214.8 17.58 230.26 17.39 245.82 C10.05 248.96 2.39 252.14 -5.61 249.82 C-10.43 245.93 -13.93 241.15 -17.53 236.15 C-21.3 231.92 -26.51 230.12 -31.61 227.82 C-32.31 227.47 -33.02 227.13 -33.75 226.77 C-40.53 223.75 -47.66 223.7 -54.75 225.71 C-67.91 230.89 -81.25 239.01 -91.98 248.2 C-99.7 254.8 -110.78 259.93 -120.92 260.07 C-122.03 260.1 -123.14 260.12 -124.28 260.15 C-128.17 259.76 -130.34 258.97 -133.61 256.82 C-134.59 253.82 -134.59 253.82 -134.92 250.16 C-135.01 249.17 -135.01 249.17 -135.11 248.15 C-135.31 246.04 -135.46 243.93 -135.61 241.82 C-135.7 240.52 -135.8 239.21 -135.91 237.87 C-136.19 233.71 -136.42 229.55 -136.62 225.39 C-136.7 223.82 -136.79 222.25 -136.87 220.68 C-137.78 203.25 -138.51 185.81 -139.22 168.37 C-139.37 164.7 -139.52 161.02 -139.68 157.35 C-140.04 148.68 -140.39 140.02 -140.75 131.35 C-141.11 122.47 -141.48 113.6 -141.85 104.72 C-142.17 97.01 -142.49 89.3 -142.8 81.6 C-142.99 77.03 -143.18 72.46 -143.37 67.89 C-143.55 63.62 -143.72 59.34 -143.9 55.06 C-143.96 53.51 -144.03 51.95 -144.09 50.4 C-144.3 45.54 -144.47 40.68 -144.61 35.82 C-144.63 35.08 -144.65 34.35 -144.68 33.59 C-144.75 31.38 -144.79 29.17 -144.83 26.95 C-144.86 25.66 -144.89 24.36 -144.92 23.02 C-144.61 19.82 -144.61 19.82 -143.23 17.94 C-139.65 15.47 -135.38 14.42 -131.29 13.07 C-130.36 12.74 -129.42 12.41 -128.45 12.07 C-121.68 9.81 -117.73 9.63 -110.98 12.2 C-107.58 14.22 -106.84 16.36 -105.67 20.07 C-102.35 30.57 -93.69 35.46 -84.61 40.82 C-83.81 41.35 -83.02 41.87 -82.2 42.41 C-77.09 45.18 -71.28 45.84 -65.61 46.82 C-64.84 46.96 -64.08 47.11 -63.3 47.25 C-56.7 47.92 -51.5 43.7 -46.61 39.82 C-43.65 37.01 -41.09 34.05 -38.61 30.82 C-38.13 30.25 -37.66 29.69 -37.18 29.1 C-33.27 23.78 -31.96 17.5 -30.48 11.17 C-29.37 6.67 -28.5 3.68 -24.61 0.82 C-17.11 -2.94 -7.68 -3.48 0 0 Z " fill="#F3F5F5" transform="translate(624.60546875,379.1796875)"/>
<path d="M0 0 C3.28 3.03 3.82 6.49 4.23 10.8 C4.35 11.84 4.46 12.88 4.57 13.95 C4.79 16.12 5 18.29 5.2 20.46 C6.35 31 10.53 36.74 17.27 44.72 C18.53 46.23 19.79 47.73 21.05 49.24 C21.65 49.96 22.25 50.68 22.87 51.42 C26.15 55.36 29.33 59.39 32.52 63.41 C38.14 70.45 43.81 77.44 49.52 84.41 C50.92 86.11 52.32 87.82 53.71 89.53 C56.44 92.87 59.18 96.2 61.92 99.53 C68.78 107.84 75.59 116.19 82.29 124.63 C87.27 130.89 92.34 137.05 97.44 143.21 C101.07 147.61 104.63 152.04 108 156.64 C109.94 158.89 112.19 160.58 114.52 162.41 C113.84 140.28 112.24 118.22 110.73 96.15 C110.18 88.09 109.64 80.03 109.09 71.97 C108.9 69.2 108.72 66.43 108.53 63.67 C106.37 32.03 106.37 32.03 106.21 17.41 C106.18 16.47 106.15 15.53 106.12 14.56 C106.11 13.67 106.11 12.77 106.1 11.84 C106.08 10.67 106.08 10.67 106.05 9.46 C106.52 7.41 106.52 7.41 108.4 5.68 C112.9 2.98 117.38 2.73 122.52 3.41 C127.84 5.47 136.92 9.21 139.52 14.41 C140.58 22.16 140.79 30.03 141.1 37.84 C141.21 40.39 141.32 42.93 141.42 45.48 C141.48 46.85 141.54 48.22 141.6 49.59 C141.91 57.09 142.23 64.59 142.56 72.09 C142.62 73.31 142.62 73.31 142.67 74.55 C143.73 98.53 144.94 122.5 146.15 146.47 C146.26 148.68 146.37 150.9 146.48 153.11 C146.8 159.43 147.12 165.75 147.44 172.07 C147.51 173.49 147.51 173.49 147.58 174.95 C147.72 177.68 147.86 180.42 148 183.15 C148.04 184.01 148.09 184.87 148.13 185.76 C148.35 190.05 148.57 194.35 148.8 198.64 C148.85 199.49 148.89 200.34 148.94 201.21 C149.03 202.8 149.11 204.38 149.2 205.96 C149.59 213.17 149.81 220.38 149.87 227.61 C149.89 229.04 149.92 230.47 149.96 231.9 C150.01 234.02 150.03 236.14 150.05 238.27 C150.07 239.5 150.09 240.73 150.11 242 C149.33 246.55 147.76 248.15 144.52 251.41 C139.11 254.3 132.79 254.77 126.75 255.1 C124.52 254.41 124.52 254.41 122.27 251.93 C119.8 246.93 120.01 242.6 120.04 237.13 C119.88 228.55 116.16 223.86 110.65 217.47 C107.3 213.57 104.13 209.61 101.07 205.48 C98.5 202.04 95.89 198.63 93.27 195.22 C92.71 194.48 92.14 193.74 91.55 192.97 C87.42 187.57 83.27 182.17 79.11 176.77 C77.21 174.31 75.32 171.83 73.44 169.35 C67.66 161.76 61.82 154.23 55.84 146.79 C50.13 139.7 44.62 132.47 39.1 125.23 C38.28 124.17 37.47 123.1 36.65 122.03 C36.25 121.51 35.84 120.98 35.43 120.44 C31.57 115.43 27.62 110.51 23.63 105.61 C21.38 102.82 19.24 100.04 17.3 97.03 C15.79 94.33 15.79 94.33 13.52 93.41 C13.74 95.28 13.74 95.28 13.97 97.2 C15.35 109.1 16.73 121 18.11 132.89 C18.82 139.01 19.53 145.12 20.25 151.24 C20.94 157.16 21.62 163.08 22.31 169 C22.57 171.24 22.83 173.48 23.09 175.71 C24.54 188.15 25.88 200.58 26.87 213.06 C26.94 213.95 27.01 214.85 27.09 215.77 C27.15 216.54 27.21 217.32 27.27 218.12 C27.54 220.59 28.04 222.97 28.52 225.41 C28.66 227.76 28.74 230.11 28.77 232.47 C28.8 233.68 28.83 234.88 28.85 236.13 C28.49 239.75 28.3 241.07 25.52 243.41 C22.81 244.13 20.34 244.65 17.59 245.03 C13.24 245.69 9.44 246.34 5.52 248.41 C0.6 248.13 -3.41 247.24 -7.48 244.41 C-9.33 239.26 -9.97 234.22 -10.45 228.79 C-10.53 227.95 -10.61 227.12 -10.69 226.26 C-10.96 223.49 -11.21 220.72 -11.46 217.95 C-11.65 216 -11.83 214.04 -12.02 212.08 C-12.41 207.93 -12.8 203.78 -13.19 199.62 C-13.79 193.12 -14.4 186.62 -15.02 180.12 C-15.73 172.64 -16.43 165.16 -17.13 157.69 C-18.42 143.92 -19.75 130.16 -21.1 116.41 C-21.24 115.01 -21.24 115.01 -21.38 113.59 C-22.59 101.28 -23.82 88.97 -25.05 76.67 C-25.3 74.26 -25.54 71.85 -25.78 69.45 C-25.94 67.84 -26.1 66.23 -26.26 64.62 C-26.34 63.83 -26.42 63.03 -26.51 62.21 C-26.98 57.5 -27.45 52.8 -27.93 48.09 C-28.22 45.15 -28.52 42.22 -28.81 39.28 C-29.02 37.27 -29.22 35.26 -29.42 33.25 C-29.67 30.81 -29.91 28.37 -30.14 25.92 C-30.37 23.52 -30.62 21.11 -30.89 18.7 C-31.01 17.54 -31.13 16.37 -31.25 15.17 C-31.37 14.13 -31.48 13.09 -31.6 12.02 C-31.48 9.41 -31.48 9.41 -30.12 7.62 C-22.22 1.77 -9.24 -5.46 0 0 Z " fill="#F3F5F5" transform="translate(670.4765625,385.59375)"/>
<path d="M0 0 C0.47 0.36 0.95 0.73 1.43 1.1 C21.72 16.52 43 25.73 69 23 C73.17 21.99 77.05 20.66 81 19 C81.99 18.67 82.98 18.34 84 18 C86.42 23.81 86.55 29.59 86.89 35.79 C86.97 36.98 87.04 38.17 87.11 39.39 C87.31 42.64 87.5 45.9 87.69 49.15 C88.06 55.44 88.46 61.72 88.85 68.01 C88.89 68.73 88.94 69.46 88.98 70.2 C89.7 81.66 90.5 93.11 91.37 104.55 C91.43 105.31 91.49 106.07 91.55 106.85 C92.11 114.26 92.68 121.66 93.26 129.06 C93.42 131.14 93.58 133.23 93.74 135.31 C93.94 137.84 94.14 140.37 94.34 142.9 C94.93 150.61 95.11 158.26 95 166 C88.25 165.6 81.59 165.19 74.94 163.94 C55.7 160.59 38.53 165.54 21 173 C17.4 174.52 14.94 175.33 11 175 C8.82 172.82 9.32 168.06 9.05 165.04 C8.93 163.64 8.93 163.64 8.79 162.2 C7.75 150.58 6.94 138.95 6.12 127.31 C5.95 124.88 5.78 122.44 5.61 120 C5.25 114.91 4.9 109.83 4.54 104.74 C4.18 99.61 3.82 94.48 3.46 89.34 C0.02 40.71 0.02 40.71 -1.23 19.41 C-1.33 17.82 -1.42 16.23 -1.53 14.64 C-1.66 12.51 -1.78 10.38 -1.9 8.25 C-1.97 7.08 -2.04 5.91 -2.11 4.7 C-2 2 -2 2 0 0 Z " fill="#000100" transform="translate(515,426)"/>
<path d="M0 0 C3.79 1.5 5.94 3.35 7.57 7.02 C8.42 9.79 9.07 12.57 9.68 15.4 C10.56 18.97 11.69 22.33 12.92 25.78 C18.76 42.23 18.76 42.23 15.55 49.25 C12.5 51.98 9.26 51.52 5.38 51.39 C4.65 51.39 3.92 51.39 3.17 51.39 C-1.97 51.31 -6.52 50.59 -11.43 49.02 C-12.12 48.3 -12.12 48.3 -12.82 47.57 C-14.96 45.51 -17.01 44.91 -19.83 43.98 C-20.89 43.63 -21.94 43.27 -23.03 42.91 C-24.13 42.56 -25.23 42.2 -26.37 41.83 C-27.46 41.46 -28.56 41.1 -29.69 40.72 C-35.93 38.63 -35.93 38.63 -42.43 38.02 C-48.33 49.82 -43.82 69.7 -42.95 82.27 C-40.28 120.63 -40.09 158.88 -40.31 197.32 C-40.32 198.38 -40.33 199.44 -40.33 200.54 C-40.36 205.56 -40.39 210.57 -40.44 215.59 C-40.45 217.38 -40.47 219.17 -40.48 220.96 C-40.49 221.75 -40.5 222.54 -40.51 223.35 C-40.54 227.99 -40.22 232.44 -39.55 237.03 C-39.34 240.47 -40.35 242.36 -42.43 245.02 C-45.55 246.26 -45.55 246.26 -49.3 246.89 C-49.97 247.01 -50.63 247.12 -51.31 247.23 C-68.69 249.94 -68.69 249.94 -75.43 245.02 C-76.9 242.08 -76.56 239.46 -76.56 236.17 C-76.56 235.11 -76.56 235.11 -76.57 234.03 C-76.57 231.67 -76.56 229.32 -76.55 226.96 C-76.55 225.73 -76.55 225.73 -76.55 224.47 C-76.54 212.47 -76.33 200.49 -76 188.5 C-75 152.34 -75.45 116.28 -76.3 80.13 C-76.37 77.28 -76.43 74.43 -76.5 71.58 C-76.6 67.05 -76.72 62.51 -76.83 57.98 C-76.87 56.28 -76.91 54.59 -76.95 52.9 C-77.01 50.55 -77.07 48.2 -77.13 45.85 C-77.15 45.17 -77.16 44.49 -77.18 43.79 C-77.31 39.14 -77.8 34.62 -78.43 30.02 C-89 26.82 -99.64 24.32 -110.43 22.02 C-110.34 23.19 -110.24 24.36 -110.15 25.56 C-109.47 37.69 -109.47 37.69 -112 41.19 C-114.12 42.5 -116.05 43.3 -118.43 44.02 C-119.38 44.45 -120.33 44.89 -121.3 45.33 C-126.64 46.51 -131.69 47.3 -136.78 44.92 C-140.32 42.51 -142.14 40.68 -143.87 36.71 C-144.27 34.04 -144.57 31.45 -144.8 28.77 C-145.14 25.04 -146.11 22 -147.49 18.52 C-149.32 13.76 -150.61 9.11 -149.43 4.02 C-148.4 2.27 -148.4 2.27 -146.43 1.02 C-139.19 0.2 -132.64 2.31 -125.68 4.14 C-114.17 7.06 -102.65 9.32 -90.93 11.21 C-89.37 11.46 -87.8 11.72 -86.24 11.97 C-80.94 12.83 -75.65 13.68 -70.34 14.49 C-52.44 17.21 -35.52 23.22 -18.43 29.02 C-19.12 27.18 -19.12 27.18 -19.83 25.3 C-20.36 23.87 -20.9 22.45 -21.43 21.02 C-21.73 20.22 -22.03 19.41 -22.34 18.59 C-26.71 6.28 -26.71 6.28 -24.57 0.82 C-20.46 -5.69 -6.07 -1.73 0 0 Z " fill="#F3F5F5" transform="translate(802.4296875,673.98046875)"/>
<path d="M0 0 C3.61 1.75 5.74 3.61 8 7 C8.3 9.58 8.49 12.06 8.59 14.65 C8.65 15.82 8.65 15.82 8.71 17.02 C8.84 19.64 8.96 22.26 9.07 24.88 C9.16 26.74 9.24 28.59 9.33 30.45 C9.56 35.45 9.78 40.45 9.99 45.45 C10.12 48.55 10.26 51.65 10.39 54.76 C11.54 81.17 12.39 107.58 12.38 134.02 C12.38 136.12 12.38 138.21 12.38 140.3 C12.38 144.16 12.36 148.02 12.34 151.88 C12.33 153.55 12.33 153.55 12.33 155.24 C12.14 170.86 12.14 170.86 9 174 C7.34 174.33 5.67 174.61 4 174.88 C0.29 175.51 -3.1 176.31 -6.62 177.62 C-10.99 179.15 -15.43 180.06 -20 179 C-22.74 177.43 -22.74 177.43 -25 175 C-25.42 172.33 -25.52 170.34 -25.38 167.69 C-25.36 166.95 -25.34 166.2 -25.31 165.44 C-25.24 162.96 -25.12 160.48 -25 158 C-24.92 156.26 -24.84 154.52 -24.76 152.79 C-24.72 151.93 -24.68 151.08 -24.64 150.2 C-24.59 149.23 -24.55 148.25 -24.5 147.25 C-24.44 145.89 -24.44 145.89 -24.37 144.5 C-24.03 136.87 -23.9 129.26 -23.91 121.62 C-23.91 120.37 -23.91 119.12 -23.91 117.83 C-23.95 105.11 -24.38 92.41 -24.86 79.71 C-25.57 60.49 -26.21 41.26 -26.3 22.03 C-26.31 20.23 -26.32 18.43 -26.34 16.63 C-26.36 14.19 -26.37 11.74 -26.36 9.3 C-26.37 8.59 -26.38 7.89 -26.39 7.16 C-26.36 4.29 -26.34 2.46 -24.59 0.12 C-16.83 -5.35 -8.5 -2.78 0 0 Z " fill="#F3F5F5" transform="translate(571,742)"/>
<path d="M0 0 C12.33 2.57 12.33 2.57 16.38 6.94 C18.27 10.52 18.1 11.24 17 15 C16.16 16.8 15.24 18.56 14.28 20.3 C13.74 21.28 13.2 22.25 12.65 23.26 C12.08 24.27 11.52 25.27 10.94 26.31 C10.37 27.34 9.8 28.37 9.22 29.42 C7.82 31.95 6.41 34.48 5 37 C5.75 37.28 6.49 37.57 7.26 37.86 C9.62 38.84 11.65 39.89 13.81 41.24 C14.5 41.67 15.18 42.1 15.88 42.54 C16.58 42.98 17.28 43.42 18 43.88 C18.7 44.31 19.4 44.74 20.12 45.19 C30.55 51.75 30.55 51.75 31.94 55.62 C31.96 56.41 31.98 57.19 32 58 C30 60 30 60 27.71 60.27 C5.17 60.14 5.17 60.14 -3 54 C-6.86 57.2 -8.67 61.9 -10.86 66.29 C-13.14 70.72 -15.37 74.54 -19 78 C-27.58 79.84 -37.34 78.32 -45 74 C-45.66 73.01 -46.32 72.02 -47 71 C-46.54 70.11 -46.08 69.22 -45.61 68.31 C-43.9 65.01 -42.22 61.71 -40.54 58.4 C-39.81 56.97 -39.07 55.54 -38.33 54.12 C-37.27 52.07 -36.23 50.01 -35.18 47.95 C-34.85 47.32 -34.52 46.68 -34.17 46.03 C-32.91 43.5 -31.98 41.55 -32.09 38.69 C-33.81 35.5 -37.59 34.38 -40.75 32.88 C-50.15 28.16 -60.97 22.64 -66 13 C-62.75 10.13 -60.29 9.43 -56 9 C-43.12 10.71 -34.75 15.77 -25 24 C-22.54 21.76 -21.11 19.59 -19.62 16.62 C-19.2 15.78 -18.77 14.94 -18.33 14.08 C-17.44 12.32 -16.56 10.55 -15.67 8.78 C-15.24 7.95 -14.82 7.11 -14.38 6.25 C-13.8 5.1 -13.8 5.1 -13.21 3.92 C-10.06 -1.08 -5.25 -0.6 0 0 Z " fill="#F3F5F5" transform="translate(574,645)"/>
</svg>
